<svg xmlns="http://www.w3.org/2000/svg" xmlns:xlink="http://www.w3.org/1999/xlink" x="0px" y="0px" viewBox="0 0 500 500" style="enable-background:new 0 0 500 500;" xml:space="preserve"><g id="Background_Complete">	<g>		<rect y="382.398" style="fill:#EBEBEB;" width="500" height="0.25"></rect>		<rect x="300.713" y="391.069" style="fill:#EBEBEB;" width="33.122" height="0.25"></rect>		<rect x="395.196" y="399.152" style="fill:#EBEBEB;" width="8.693" height="0.25"></rect>		<rect x="335.588" y="395.402" style="fill:#EBEBEB;" width="19.192" height="0.25"></rect>		<rect x="52.459" y="390.888" style="fill:#EBEBEB;" width="43.193" height="0.25"></rect>		<rect x="244.667" y="390.888" style="fill:#EBEBEB;" width="6.333" height="0.25"></rect>		<rect x="141.693" y="395.236" style="fill:#EBEBEB;" width="45.306" height="0.25"></rect>		<path style="fill:#EBEBEB;" d="M237.014,337.8H43.915c-3.147,0-5.708-2.561-5.708-5.708V60.66c0-3.147,2.561-5.708,5.708-5.708   h193.099c3.146,0,5.707,2.561,5.707,5.708v271.432C242.721,335.239,240.16,337.8,237.014,337.8z M43.915,55.203   c-3.01,0-5.458,2.448-5.458,5.458v271.432c0,3.01,2.448,5.458,5.458,5.458h193.099c3.009,0,5.457-2.448,5.457-5.458V60.66   c0-3.009-2.448-5.458-5.457-5.458H43.915z"></path>		<path style="fill:#EBEBEB;" d="M453.31,337.8H260.212c-3.147,0-5.707-2.561-5.707-5.708V60.66c0-3.147,2.561-5.708,5.707-5.708   H453.31c3.148,0,5.708,2.561,5.708,5.708v271.432C459.019,335.239,456.458,337.8,453.31,337.8z M260.212,55.203   c-3.009,0-5.457,2.448-5.457,5.458v271.432c0,3.01,2.448,5.458,5.457,5.458H453.31c3.01,0,5.458-2.448,5.458-5.458V60.66   c0-3.009-2.448-5.458-5.458-5.458H260.212z"></path>	</g>	<g>		<g>			<g>									<rect x="277.612" y="92.313" transform="matrix(-1 -1.224647e-16 1.224647e-16 -1 711.3822 304.4675)" style="fill:#EBEBEB;" width="156.158" height="119.842"></rect>				<rect x="433.77" y="92.313" style="fill:#E6E6E6;" width="3.009" height="119.842"></rect>									<rect x="301.383" y="79.768" transform="matrix(-1.836970e-16 1 -1 -1.836970e-16 507.9247 -203.4572)" style="fill:#FAFAFA;" width="108.616" height="144.932"></rect>				<rect x="283.225" y="97.926" style="fill:#E6E6E6;" width="3.009" height="108.616"></rect>				<polygon style="fill:#FFFFFF;" points="410.129,206.542 383.586,97.926 367.011,97.926 393.555,206.542     "></polygon>				<polygon style="fill:#FFFFFF;" points="389.041,206.542 362.496,97.926 352.246,97.926 378.79,206.542     "></polygon>				<polygon style="fill:#FFFFFF;" points="334.031,206.542 307.487,97.926 297.236,97.926 323.78,206.542     "></polygon>			</g>			<g>				<path style="opacity:0.5;fill:#F5F5F5;" d="M439.711,94.179v176.11c0,3.332-2.701,6.032-6.032,6.032h-10.283     c-3.297,0-5.984-2.641-6.032-5.938c-0.142-9.782,0.422-83.386,6.453-96.984c0.749-1.688,0.648-3.626-0.23-5.251     c-9.698-17.943-22.399-43.574-23.999-73.698c-0.182-3.433,2.589-6.304,6.027-6.304h28.064     C437.01,88.146,439.711,90.847,439.711,94.179z"></path>				<path style="fill:#E0E0E0;" d="M425.355,173.094h13.659c1.235,0,2.245-1.01,2.245-2.245l0,0c0-1.235-1.01-2.245-2.245-2.245     h-13.659c-1.235,0-2.245,1.01-2.245,2.245l0,0C423.109,172.084,424.12,173.094,425.355,173.094z"></path>			</g>			<g>				<path style="opacity:0.5;fill:#F5F5F5;" d="M273.813,94.179v176.11c0,3.332,2.701,6.032,6.032,6.032h10.283     c3.297,0,5.984-2.641,6.032-5.938c0.142-9.782-0.422-83.386-6.453-96.984c-0.749-1.688-0.648-3.626,0.23-5.251     c9.698-17.943,22.399-43.574,23.999-73.698c0.182-3.433-2.589-6.304-6.027-6.304h-28.064     C276.513,88.146,273.813,90.847,273.813,94.179z"></path>				<path style="fill:#E0E0E0;" d="M288.169,173.094H274.51c-1.235,0-2.245-1.01-2.245-2.245l0,0c0-1.235,1.01-2.245,2.245-2.245     h13.659c1.235,0,2.245,1.01,2.245,2.245l0,0C290.414,172.084,289.404,173.094,288.169,173.094z"></path>			</g>		</g>		<g>			<g>									<rect x="62.544" y="92.313" transform="matrix(-1 -1.224647e-16 1.224647e-16 -1 281.2458 304.4675)" style="fill:#EBEBEB;" width="156.158" height="119.842"></rect>				<rect x="218.702" y="92.313" style="fill:#E6E6E6;" width="3.009" height="119.842"></rect>									<rect x="86.315" y="79.768" transform="matrix(-1.836970e-16 1 -1 -1.836970e-16 292.8564 11.6111)" style="fill:#FAFAFA;" width="108.616" height="144.932"></rect>				<rect x="68.157" y="97.926" style="fill:#E6E6E6;" width="3.009" height="108.616"></rect>				<polygon style="fill:#FFFFFF;" points="195.061,206.542 168.517,97.926 151.942,97.926 178.486,206.542     "></polygon>				<polygon style="fill:#FFFFFF;" points="173.972,206.542 147.428,97.926 137.177,97.926 163.721,206.542     "></polygon>				<polygon style="fill:#FFFFFF;" points="118.962,206.542 92.418,97.926 82.167,97.926 108.712,206.542     "></polygon>			</g>			<g>				<path style="opacity:0.5;fill:#F5F5F5;" d="M224.643,94.179v176.11c0,3.332-2.701,6.032-6.032,6.032h-10.283     c-3.297,0-5.984-2.641-6.032-5.938c-0.142-9.782,0.422-83.386,6.453-96.984c0.749-1.688,0.648-3.626-0.23-5.251     c-9.698-17.943-22.399-43.574-23.999-73.698c-0.182-3.433,2.589-6.304,6.027-6.304h28.064     C221.942,88.146,224.643,90.847,224.643,94.179z"></path>				<path style="fill:#E0E0E0;" d="M210.287,173.094h13.659c1.235,0,2.245-1.01,2.245-2.245l0,0c0-1.235-1.01-2.245-2.245-2.245     h-13.659c-1.235,0-2.245,1.01-2.245,2.245l0,0C208.041,172.084,209.052,173.094,210.287,173.094z"></path>			</g>			<g>				<path style="opacity:0.5;fill:#F5F5F5;" d="M58.744,94.179v176.11c0,3.332,2.701,6.032,6.032,6.032H75.06     c3.297,0,5.984-2.641,6.032-5.938c0.142-9.782-0.422-83.386-6.453-96.984c-0.749-1.688-0.649-3.626,0.23-5.251     c9.698-17.943,22.398-43.574,23.999-73.698c0.182-3.433-2.589-6.304-6.027-6.304H64.777     C61.445,88.146,58.744,90.847,58.744,94.179z"></path>				<path style="fill:#E0E0E0;" d="M73.101,173.094H59.442c-1.235,0-2.245-1.01-2.245-2.245l0,0c0-1.235,1.01-2.245,2.245-2.245     h13.659c1.235,0,2.245,1.01,2.245,2.245l0,0C75.346,172.084,74.335,173.094,73.101,173.094z"></path>			</g>		</g>		<g>			<g>				<path style="fill:#E0E0E0;" d="M378.809,241.089c0,12.285-9.959,22.244-22.244,22.244c-12.285,0-22.244-9.959-22.244-22.244     H378.809z"></path>				<path style="fill:#EBEBEB;" d="M344.37,246.187c0,9.469-7.677,17.146-17.146,17.146c-9.469,0-17.146-7.677-17.146-17.146H344.37     z"></path>			</g>			<g>									<rect x="218.142" y="263.333" transform="matrix(-1 -1.224647e-16 1.224647e-16 -1 647.4439 549.1173)" style="fill:#EBEBEB;" width="211.16" height="22.451"></rect>									<rect x="220.682" y="265.639" transform="matrix(-1 -1.224647e-16 1.224647e-16 -1 519.0465 549.1174)" style="fill:#F5F5F5;" width="77.682" height="17.84"></rect>									<rect x="301.127" y="265.639" transform="matrix(-1 -1.224647e-16 1.224647e-16 -1 679.9353 549.1174)" style="fill:#F5F5F5;" width="77.682" height="17.84"></rect>				<polygon style="fill:#F5F5F5;" points="386.444,382.398 391.111,382.398 381.142,285.784 376.475,285.784     "></polygon>				<polygon style="fill:#F5F5F5;" points="427.518,382.398 432.184,382.398 422.215,285.784 417.549,285.784     "></polygon>				<polygon style="fill:#F5F5F5;" points="261,382.398 256.333,382.398 266.302,285.784 270.969,285.784     "></polygon>				<polygon style="fill:#F5F5F5;" points="219.926,382.398 215.26,382.398 225.229,285.784 229.895,285.784     "></polygon>			</g>		</g>		<g>			<path style="fill:#EBEBEB;" d="M189.169,306.895h-21.213v75.503h16.346c2.688,0,4.867-2.179,4.867-4.867V306.895z"></path>			<path style="fill:#F5F5F5;" d="M86.244,306.895h81.713v75.503H91.111c-2.688,0-4.867-2.179-4.867-4.867V306.895z"></path>			<path style="fill:#E6E6E6;" d="M187.157,320.043h-98.9c-2.811,0-5.09-2.279-5.09-5.09v-12.53c0-2.811,2.279-5.09,5.09-5.09h98.9    c2.811,0,5.09,2.279,5.09,5.09v12.53C192.246,317.764,189.967,320.043,187.157,320.043z"></path>		</g>	</g></g><g id="Background_Simple" style="display:none;">	<g style="display:inline;">		<path style="fill:#407BFF;" d="M251.656,153.555c33.418-20.21,59.219-50.051,103.028-41.061   c34.542,7.089,58.259,39.031,58.121,73.942c-0.161,40.75-32.173,63.622-52.358,94.834c-17.981,27.802-36.693,69.527-77.001,65.349   c-34.273-3.553-48.396-46.599-86.621-49.223c-39.528-2.713-65.389,10.196-89.859-34.643c-18.191-33.335-13.594-76.556,25.1-92.208   C170.451,155.017,213.165,176.827,251.656,153.555z"></path>		<path style="opacity:0.9;fill:#FFFFFF;" d="M251.656,153.555c33.418-20.21,59.219-50.051,103.028-41.061   c34.542,7.089,58.259,39.031,58.121,73.942c-0.161,40.75-32.173,63.622-52.358,94.834c-17.981,27.802-36.693,69.527-77.001,65.349   c-34.273-3.553-48.396-46.599-86.621-49.223c-39.528-2.713-65.389,10.196-89.859-34.643c-18.191-33.335-13.594-76.556,25.1-92.208   C170.451,155.017,213.165,176.827,251.656,153.555z"></path>	</g></g><g id="Shadow_1_">	<ellipse id="_x3C_Path_x3E__25_" style="fill:#F5F5F5;" cx="250" cy="416.238" rx="193.889" ry="11.323"></ellipse></g><g id="Character_1_">	<g>		<polygon style="fill:#FFC3BD;" points="336.859,400.01 328.701,401.201 323.615,382.734 331.772,381.543   "></polygon>		<polygon style="fill:#FFC3BD;" points="370.58,407.839 362.354,407.839 360.019,388.789 368.245,388.789   "></polygon>		<path style="fill:#263238;" d="M361.274,406.886h10.029c0.336,0,0.63,0.234,0.706,0.562l1.698,7.312   c0.176,0.758-0.413,1.476-1.19,1.463c-3.227-0.056-5.584-0.245-9.648-0.245c-2.5,0-10.038,0.26-13.491,0.26   c-3.377,0-3.938-3.414-2.528-3.723c6.324-1.386,11.082-3.299,13.092-5.123C360.306,407.063,360.782,406.886,361.274,406.886z"></path>		<path style="fill:#263238;" d="M328.082,398.938l8.146-3.834c0.305-0.143,0.67-0.058,0.878,0.206l4.64,5.88   c0.481,0.609,0.27,1.501-0.44,1.82c-2.962,1.333-7.291,3.161-10.985,4.899c-4.319,2.032-4.466,2.074-9.728,3.982   c-3.182,1.154-5.255-1.718-4.031-2.49c5.572-3.515,6.441-3.587,9.999-9.043C326.95,399.767,327.439,399.241,328.082,398.938z"></path>		<g>			<polygon style="opacity:0.2;" points="323.618,382.738 326.238,392.258 334.399,391.067 331.779,381.547    "></polygon>			<polygon style="opacity:0.2;" points="368.248,388.794 360.018,388.794 361.226,398.613 369.455,398.613    "></polygon>		</g>		<g>			<path style="fill:#407BFF;" d="M322.89,390.831l13.812-2.022c0,0-10.16-50.863-7.81-76.364    c0.716-7.757,2.143-14.998,4.698-26.548c3.226-14.552,7.278-30.283,10.597-42.601c3.501-12.973,6.169-22.153,6.169-22.153    l-28.861-2.236c0,0-13.242,66.009-14.037,91.094C306.629,336.082,322.89,390.831,322.89,390.831z"></path>			<path style="opacity:0.3;" d="M322.89,390.831l13.812-2.022c0,0-10.16-50.863-7.81-76.364c0.716-7.757,2.143-14.998,4.698-26.548    c3.226-14.552,7.278-30.283,10.597-42.601c3.501-12.973,6.169-22.153,6.169-22.153l-28.861-2.236    c0,0-13.242,66.009-14.037,91.094C306.629,336.082,322.89,390.831,322.89,390.831z"></path>		</g>		<path style="opacity:0.2;" d="M333.591,285.896c3.226-14.552,7.278-30.283,10.597-42.601l-3.009-6.472   C334.04,245.273,332.173,271.584,333.591,285.896z"></path>		<g>			<path style="fill:#407BFF;" d="M337.067,220.113c0,0,3.272,70.45,6.799,94.328c3.862,26.148,13.538,82.271,13.538,82.271h15.067    c0,0-5.853-69.703-7.171-83.378c-2.817-29.232,0.096-91.024,0.096-91.024L337.067,220.113z"></path>			<path style="opacity:0.3;" d="M337.067,220.113c0,0,3.272,70.45,6.799,94.328c3.862,26.148,13.538,82.271,13.538,82.271h15.067    c0,0-5.853-69.703-7.171-83.378c-2.817-29.232,0.096-91.024,0.096-91.024L337.067,220.113z"></path>		</g>		<polygon style="fill:#263238;" points="355.603,397.037 373.345,397.037 373.292,391.737 353.456,391.392   "></polygon>		<polygon style="fill:#263238;" points="321.205,391.404 337.666,389.001 336.845,383.713 318.401,386.12   "></polygon>		<path style="fill:#407BFF;" d="M358.569,408.323c-0.626,0-1.213-0.106-1.589-0.419c-0.297-0.248-0.436-0.594-0.413-1.03   c0.017-0.324,0.188-0.479,0.328-0.551c0.903-0.469,3.575,1.163,3.877,1.35c0.067,0.042,0.103,0.119,0.091,0.197   c-0.012,0.077-0.069,0.139-0.145,0.158C360.148,408.166,359.329,408.323,358.569,408.323z M357.329,406.621   c-0.102,0-0.187,0.015-0.252,0.049c-0.052,0.027-0.113,0.077-0.121,0.229c-0.016,0.31,0.073,0.541,0.272,0.707   c0.454,0.377,1.529,0.429,2.922,0.148C359.216,407.217,357.96,406.621,357.329,406.621z"></path>		<path style="fill:#407BFF;" d="M360.672,408.033c-0.032,0-0.064-0.008-0.093-0.023c-0.856-0.463-2.52-2.265-2.355-3.182   c0.03-0.166,0.15-0.454,0.615-0.511c0.303-0.035,0.582,0.047,0.832,0.251c0.964,0.781,1.184,3.155,1.193,3.255   c0.006,0.072-0.027,0.14-0.087,0.179C360.746,408.023,360.709,408.033,360.672,408.033z M358.978,404.699   c-0.029,0-0.058,0.002-0.088,0.005c-0.253,0.031-0.274,0.147-0.283,0.197c-0.097,0.541,0.965,1.904,1.817,2.546   c-0.103-0.693-0.379-2.077-0.997-2.577C359.286,404.755,359.138,404.699,358.978,404.699z"></path>		<path style="fill:#407BFF;" d="M327.84,400.305c-0.006,0.006-0.013,0.012-0.02,0.017c-1.087,0.803-3.085,2.1-4.249,1.767   c-0.351-0.1-0.6-0.335-0.742-0.697c-0.084-0.216-0.061-0.424,0.067-0.603c0.664-0.937,4.39-0.83,4.812-0.817   c0.083,0.003,0.155,0.057,0.181,0.136C327.912,400.179,327.892,400.254,327.84,400.305z M323.267,400.956   c-0.02,0.019-0.037,0.038-0.051,0.058c-0.052,0.073-0.058,0.144-0.021,0.24c0.096,0.245,0.254,0.397,0.484,0.463   c0.653,0.187,1.915-0.32,3.431-1.366C325.658,400.348,323.737,400.499,323.267,400.956z"></path>		<path style="fill:#407BFF;" d="M327.84,400.305c-0.035,0.034-0.082,0.055-0.133,0.056c-1.093,0.023-3.647-0.737-3.913-1.637   c-0.062-0.212-0.039-0.521,0.422-0.799c0.343-0.206,0.721-0.26,1.125-0.161c1.321,0.326,2.481,2.223,2.53,2.304   c0.036,0.059,0.037,0.133,0.003,0.193C327.865,400.277,327.853,400.292,327.84,400.305z M324.257,398.377   c-0.122,0.119-0.097,0.205-0.087,0.238c0.16,0.54,1.977,1.227,3.16,1.342c-0.376-0.537-1.216-1.603-2.083-1.817   c-0.302-0.074-0.573-0.036-0.827,0.116C324.347,398.299,324.295,398.34,324.257,398.377z"></path>		<path style="fill:#FFC3BD;" d="M332.604,159.813c-2.033,4.123-4.127,8.241-6.253,12.325l-6.416,12.204   c-1.042,2.026-2.14,4.042-3.126,6.02c-0.678,1.299-1.567,2.808-2.863,4.15c-1.277,1.353-3.084,2.648-5.168,3.25   c-1.031,0.321-2.086,0.431-3.093,0.454c-0.988-0.021-1.948-0.122-2.798-0.348c-1.722-0.443-3.152-1.132-4.385-1.924   c-1.233-0.799-2.314-1.667-3.271-2.615c-0.488-0.464-0.939-0.954-1.373-1.457c-0.453-0.514-0.809-0.992-1.282-1.624l4.404-4.331   l1.29,0.702c0.452,0.239,0.908,0.468,1.358,0.681c0.905,0.422,1.798,0.775,2.636,1.006c0.835,0.238,1.603,0.347,2.163,0.287   c0.574-0.032,0.852-0.209,0.947-0.386c0.1-0.169,0.205-0.31,0.421-0.717c0.215-0.417,0.44-0.957,0.737-1.752   c0.915-2.238,1.821-4.392,2.783-6.535c1.901-4.275,3.866-8.488,5.891-12.669c1.017-2.088,2.036-4.173,3.1-6.235   c1.055-2.069,2.095-4.136,3.209-6.186L332.604,159.813z"></path>		<path style="fill:#263238;" d="M336.138,154.422c2.27,7.553-13.204,28.075-13.204,28.075l-15.814-10.181   c0,0,4.555-10.482,10.783-18.465C324.298,145.653,333.647,146.133,336.138,154.422z"></path>		<path style="opacity:0.2;" d="M325.993,164.75c-4.002,1.825-8.281,8.612-8.914,13.976l5.858,3.771c0,0,5.945-7.882,9.923-15.674   C331.645,164.902,330.577,162.66,325.993,164.75z"></path>		<path style="fill:#263238;" d="M372.788,151.202c-2.517,9.07-4.118,18.314-5.167,27.018c-0.763,6.368-1.217,12.448-1.495,17.962   c-0.655,12.925-0.348,22.785-0.725,26.122c-6.434-0.496-30.68-2.371-43.9-3.398c-6.083-46.839,5.277-70.859,5.277-70.859   s4.857-0.931,10.504-1.217c0.743-0.042,1.5-0.062,2.268-0.072c4.971-0.066,13.077,0.742,18.665,1.444   c1.175,0.149,2.363,0.33,3.518,0.525C367.612,149.73,372.788,151.202,372.788,151.202z"></path>		<g>			<path style="fill:#FFFFFF;" d="M343.303,152.793c0,0,2.946,1.763,3.97,7.465c3.543-1.512,12.797-7.817,12.867-12.31    c-1.687-1.67-2.844-2.351-2.844-2.351S351.719,150.011,343.303,152.793z"></path>		</g>		<g>			<path style="fill:#FFFFFF;" d="M343.303,152.793c0,0-4.676,0.71-7.393,5.463c-3.573-1.512,0.611-10.77,3.197-11.839    c2.085-1.08,3.571-0.973,3.571-0.973S339.489,151.492,343.303,152.793z"></path>		</g>		<path style="fill:#407BFF;" d="M368.032,149.252l-7.332-2.228c-0.501-0.152-1.035,0.089-1.245,0.569   c-1.78,4.06-10.023,21.878-21.64,31.657c-7.733-15.507-1.184-28.663,0.779-32.01c0.203-0.347-0.072-0.772-0.472-0.737   l-9.662,0.843c-0.476,0.042-0.862,0.412-0.932,0.884c-3.973,26.552-8.577,40.359-8.577,40.359   c0.031,10.62,0.711,22.801,0.758,33.984c0.003,0.654,0.531,1.176,1.184,1.176h15.474h29.587c0.637,0,1.161-0.503,1.187-1.139   l1.334-32.564c0,0-13.176-19.594,0.102-39.212C368.97,150.252,368.705,149.456,368.032,149.252z"></path>		<path style="opacity:0.2;" d="M337.067,224c-0.126,0-0.235-0.096-0.249-0.224c-2.514-24.319,0.717-44.367,0.75-44.566   c0.022-0.136,0.148-0.23,0.287-0.206c0.136,0.022,0.228,0.151,0.206,0.287c-0.033,0.199-3.253,20.184-0.745,44.434   c0.014,0.138-0.086,0.26-0.223,0.274C337.084,223.999,337.075,224,337.067,224z"></path>		<g style="opacity:0.2;">			<path style="fill:#FFFFFF;" d="M366.708,148.85l-4.86-1.48c-9.94,19.51-13.25,44.33-9.84,73.8c0.13,1.13,0.26,2.29,0.26,2.58h5    c0-0.56-0.09-1.37-0.3-3.15C353.638,191.72,356.908,167.58,366.708,148.85z"></path>			<path style="fill:#FFFFFF;" d="M330.378,147.18c-6.25,19.92-8.16,44.73-5.69,73.8c0.11,1.3,0.21,2.43,0.21,2.77h5    c0-0.53-0.07-1.41-0.23-3.2c-2.5-29.4-0.44-54.23,6.12-73.84L330.378,147.18z"></path>		</g>		<path style="fill:#FFC3BD;" d="M357.782,127.062c-1.583,5.909-3.501,16.811,0.43,21.141c-3.294,2.93-8.039,5.273-14.774,4.604   c-5.159-0.513-5.175-4.141-3.888-6.051c6.804-1.079,6.967-6.056,6.115-10.809L357.782,127.062z"></path>		<path style="opacity:0.2;" d="M352.842,130.688l-7.171,5.255c0.205,1.125,0.347,2.261,0.352,3.355   c2.583-0.171,6.287-2.704,6.739-5.36C352.987,132.614,353.018,131.327,352.842,130.688z"></path>		<path style="fill:#263238;" d="M351.639,120.671c-10.051-3.051-16.779-9.77-17.781-16.42c1.243,1.201,7.637,1.582,7.637,1.582   c4.037-1.847,12.017-0.474,13.063,3.397C360.426,108.019,360.399,121.783,351.639,120.671z"></path>		<path style="fill:#FFC3BD;" d="M359.107,118.088c-1.048,8.086-1.25,12.875-5.639,16.727c-6.601,5.794-16.386,1.295-17.778-6.966   c-1.253-7.435,0.672-19.409,8.849-22.025C352.596,103.248,360.155,110.002,359.107,118.088z"></path>		<path style="fill:#263238;" d="M349.87,109.667c0.705,4.166,2.94,11.611,8.109,14.055c9.225-3.055,10.891-11.278,4.613-13.167   C356.315,108.667,349.25,106.003,349.87,109.667z"></path>		<path style="fill:#263238;" d="M356.574,117.611c-9.998-3.222-17.659-8.889-17.498-16.722c1.222,1.222,4.556,2.111,4.556,2.111   c2.038-2.511,21.427-2.833,20.357,9.75C367.454,113,365.314,118.873,356.574,117.611z"></path>		<path style="fill:#263238;" d="M361.666,111.509c0,0,2.302-3.399,6.786,0.261C366.088,111.524,363.712,111.353,361.666,111.509z"></path>		<path style="fill:#263238;" d="M362.008,111.217c0,0,3.306,0.476,3.559-4.227C364.42,108.547,363.223,110.071,362.008,111.217z"></path>		<path style="fill:#FFC3BD;" d="M361.783,125.069c-0.79,2.046-2.456,3.528-4.121,4.219c-2.504,1.04-4.107-1.132-3.704-3.674   c0.362-2.288,2.103-5.587,4.757-5.546C361.33,120.107,362.686,122.729,361.783,125.069z"></path>		<path style="fill:#263238;" d="M346.62,119.403c-0.045,0.661-0.432,1.17-0.865,1.137c-0.433-0.034-0.747-0.597-0.703-1.259   c0.045-0.661,0.432-1.17,0.865-1.137C346.35,118.178,346.665,118.741,346.62,119.403z"></path>		<path style="fill:#263238;" d="M339.137,118.822c-0.045,0.662-0.432,1.171-0.865,1.137c-0.433-0.034-0.747-0.597-0.703-1.259   s0.432-1.171,0.865-1.137C338.867,117.597,339.182,118.161,339.137,118.822z"></path>		<path style="fill:#ED847E;" d="M341.494,119.336c0,0-1.791,3.555-3.584,5.208c1.086,1.123,3.111,0.776,3.111,0.776   L341.494,119.336z"></path>		<path style="fill:#263238;" d="M344.951,129.894c-0.274,0.016-0.563,0.014-0.866-0.01c-0.107-0.008-0.189-0.102-0.181-0.209   c0.007-0.108,0.103-0.188,0.207-0.179c2.909,0.222,4.4-1.698,4.415-1.717c0.064-0.086,0.187-0.101,0.273-0.036   c0.086,0.066,0.103,0.188,0.039,0.273C348.779,128.094,347.492,129.751,344.951,129.894z"></path>		<path style="fill:#263238;" d="M349.091,117.167c-0.136,0.008-0.272-0.056-0.352-0.179c-0.953-1.463-2.389-1.49-2.403-1.491   c-0.215-0.002-0.39-0.177-0.391-0.392c-0.001-0.215,0.175-0.388,0.389-0.387c0.076,0,1.875,0.034,3.057,1.849   c0.118,0.181,0.068,0.422-0.112,0.538C349.22,117.144,349.156,117.163,349.091,117.167z"></path>		<path style="fill:#263238;" d="M336.087,116c-0.074,0.004-0.15-0.012-0.219-0.053c-0.187-0.109-0.252-0.348-0.145-0.533   c1.072-1.864,2.862-1.956,2.942-1.97c0.215-0.01,0.399,0.156,0.411,0.371c0.012,0.214-0.15,0.396-0.363,0.408   c-0.075,0.001-1.453,0.09-2.313,1.586C336.332,115.925,336.212,115.993,336.087,116z"></path>		<g>			<path style="fill:#FFC3BD;" d="M297.307,185.903l-6.741-4.988l-1.766,9.131c0,0,6.283,4.087,8.252,0.761L297.307,185.903z"></path>			<polygon style="fill:#FFC3BD;" points="282.294,180.17 283.441,188.536 288.8,190.047 290.566,180.916    "></polygon>			<path style="fill:#FFC3BD;" d="M376.85,156.688c1.689,2.354,3.125,4.618,4.593,6.99c1.461,2.349,2.828,4.764,4.137,7.241    c1.305,2.48,2.519,5.038,3.635,7.721c1.084,2.71,2.084,5.503,2.714,8.791c0.302,1.656,0.512,3.446,0.302,5.644    c-0.117,1.097-0.359,2.323-0.925,3.635c-0.273,0.647-0.654,1.322-1.114,1.957c-0.127,0.184-0.206,0.273-0.284,0.361l-0.244,0.281    l-0.493,0.556c-1.352,1.45-2.949,2.588-4.568,3.434c-1.624,0.848-3.273,1.436-4.896,1.802c-3.244,0.752-6.344,0.806-9.305,0.544    c-1.482-0.137-2.933-0.353-4.358-0.659c-1.449-0.306-2.771-0.669-4.281-1.191l1.246-6.05c4.794-0.067,10.018-0.599,13.755-2.22    c0.925-0.416,1.753-0.864,2.424-1.376c0.674-0.51,1.181-1.065,1.582-1.625l0.138-0.219l0.072-0.106    c0.029-0.04,0.056-0.079,0.016-0.038c-0.082,0.087-0.13,0.179-0.161,0.206c-0.056,0.079-0.036-0.018-0.044-0.247    c0.001-0.465-0.13-1.348-0.366-2.298c-0.476-1.934-1.372-4.157-2.388-6.341c-1.01-2.207-2.186-4.421-3.419-6.629    c-1.228-2.212-2.551-4.403-3.879-6.598c-1.327-2.169-2.777-4.39-4.111-6.428L376.85,156.688z"></path>			<path style="fill:#263238;" d="M372.788,151.202c7.536,2.33,16.738,23.991,16.738,23.991l-18.319,8.446    c0,0-4.411-6.959-7.058-16.806C363.246,163.48,366.204,149.167,372.788,151.202z"></path>			<g>									<rect x="281.887" y="183.466" transform="matrix(0.9916 0.1295 -0.1295 0.9916 30.4887 -39.4832)" style="fill:#263238;" width="74.125" height="62.623"></rect>									<rect x="282.107" y="180.091" transform="matrix(0.9916 0.1295 -0.1295 0.9916 29.8342 -36.1646)" style="opacity:0.1;" width="21.977" height="62.623"></rect>			</g>			<path style="fill:#FFC3BD;" d="M364.823,198.538l-6.547-5.169l-2.415,10.275c0,0,6.541,3.15,8.58-0.164L364.823,198.538z"></path>			<polygon style="fill:#FFC3BD;" points="351.438,193.329 349.836,201.916 355.86,203.644 358.276,193.369    "></polygon>		</g>	</g></g><g id="Blocks">	<g>		<g>			<rect x="194.193" y="341.294" style="fill:#407BFF;" width="88.708" height="74.943"></rect>			<rect x="194.193" y="341.294" style="opacity:0.1;" width="26.301" height="74.943"></rect>		</g>		<g>			<rect x="142.821" y="191.407" style="fill:#407BFF;" width="88.708" height="74.943"></rect>			<rect x="142.821" y="191.407" style="opacity:0.1;" width="37.213" height="74.943"></rect>		</g>		<g>							<rect x="95.652" y="266.349" transform="matrix(-1 -1.224647e-16 1.224647e-16 -1 280.0131 682.586)" style="fill:#407BFF;" width="88.708" height="149.887"></rect>			<path style="opacity:0.1;fill:#FFFFFF;" d="M163.035,313.658c2.806,21.255,15.056,26.831,21.325,53.468v-77.211    C171.336,276.404,160.23,292.402,163.035,313.658z"></path>			<path style="opacity:0.1;fill:#FFFFFF;" d="M133.213,284.934c1.984,7.031-0.853,13.852-6.695,17.166    c-5.841,3.315-12.487,0.159-17.104-5.502c-4.617-5.661-1.793-14.191,4.049-17.506    C119.304,275.777,131.229,277.903,133.213,284.934z"></path>			<path style="opacity:0.1;fill:#FFFFFF;" d="M105.32,381.99c-8.257-24.953,2.05-57.51,21.536-63.14s27.464,10.148,31.204,19.194    c15.881,14.477,21.576,52.407,0,62.348C151.261,409.944,113.578,406.943,105.32,381.99z"></path>			<rect x="95.652" y="266.349" style="opacity:0.1;" width="62.408" height="149.887"></rect>		</g>		<g>			<rect x="215.577" y="266.351" style="fill:#407BFF;" width="74.944" height="74.944"></rect>			<rect x="215.577" y="266.351" style="opacity:0.4;fill:#FFFFFF;" width="74.944" height="74.944"></rect>		</g>		<g>							<ellipse transform="matrix(0.7071 -0.7071 0.7071 0.7071 -128.6609 172.8788)" style="fill:#407BFF;" cx="144.353" cy="241.747" rx="24.603" ry="24.603"></ellipse>							<ellipse transform="matrix(0.7071 -0.7071 0.7071 0.7071 -128.6609 172.8788)" style="opacity:0.4;" cx="144.353" cy="241.747" rx="24.603" ry="24.603"></ellipse>		</g>	</g></g></svg>